<svg width="81" height="17" viewBox="0 0 81 17" fill="none" xmlns="http://www.w3.org/2000/svg">
<path d="M10.7805 5.56055C10.7805 6.2832 10.6372 6.92448 10.3508 7.48438C10.0708 8.03776 9.68021 8.49674 9.17891 8.86133C8.68411 9.22591 8.14049 9.49284 7.54805 9.66211C6.9556 9.83138 6.32734 9.91602 5.66328 9.91602H4.11055V14.1152C4.11055 14.3431 4.14635 14.5449 4.21797 14.7207C4.29609 14.89 4.45234 15.0202 4.68672 15.1113C4.80391 15.1569 5.00898 15.1992 5.30195 15.2383C5.60143 15.2773 5.87487 15.3001 6.12226 15.3066V16H0.174999V15.3066C0.331249 15.2936 0.555859 15.2708 0.848827 15.2383C1.14831 15.2057 1.35664 15.1634 1.47383 15.1113C1.66914 15.0267 1.80911 14.903 1.89375 14.7402C1.9849 14.5775 2.03047 14.3691 2.03047 14.1152V4.11523C2.03047 3.88737 1.99792 3.68229 1.93281 3.5C1.86771 3.31771 1.71471 3.18099 1.47383 3.08984C1.22643 3.00521 0.979036 2.94661 0.73164 2.91406C0.490754 2.875 0.282421 2.84896 0.10664 2.83594V2.14258H6.43476C7.72383 2.14258 8.76875 2.45508 9.56953 3.08008C10.3768 3.69857 10.7805 4.52539 10.7805 5.56055ZM7.81172 7.92383C8.03307 7.61133 8.17956 7.28906 8.25117 6.95703C8.32279 6.61849 8.35859 6.31576 8.35859 6.04883C8.35859 5.67773 8.31302 5.30013 8.22187 4.91602C8.13724 4.5319 7.9875 4.19661 7.77266 3.91016C7.54479 3.60417 7.24531 3.36654 6.87422 3.19727C6.50312 3.02799 6.04088 2.94336 5.4875 2.94336H4.11055V9.06641H5.10664C5.80976 9.06641 6.37943 8.95898 6.81562 8.74414C7.25833 8.52279 7.59036 8.24935 7.81172 7.92383ZM21.8828 13.7344C21.4792 14.5026 20.9388 15.1146 20.2617 15.5703C19.5846 16.026 18.8066 16.2539 17.9277 16.2539C17.153 16.2539 16.4727 16.1172 15.8867 15.8438C15.3073 15.5703 14.8288 15.1992 14.4512 14.7305C14.0736 14.2617 13.7904 13.7148 13.6016 13.0898C13.4193 12.4648 13.3281 11.804 13.3281 11.1074C13.3281 10.4824 13.4258 9.87044 13.6211 9.27148C13.8229 8.66602 14.1159 8.1224 14.5 7.64062C14.8711 7.17839 15.3301 6.80729 15.877 6.52734C16.4303 6.24089 17.0488 6.09766 17.7324 6.09766C18.4355 6.09766 19.0378 6.20833 19.5391 6.42969C20.0404 6.65104 20.4473 6.95378 20.7598 7.33789C21.0592 7.70247 21.2806 8.13216 21.4238 8.62695C21.5736 9.12174 21.6484 9.65885 21.6484 10.2383V10.8828H15.2715C15.2715 11.5143 15.3301 12.0872 15.4473 12.6016C15.571 13.1159 15.763 13.5684 16.0234 13.959C16.2773 14.3366 16.6094 14.6361 17.0195 14.8574C17.4297 15.0723 17.918 15.1797 18.4844 15.1797C19.0638 15.1797 19.5618 15.0462 19.9785 14.7793C20.4017 14.5059 20.8086 14.0176 21.1992 13.3145L21.8828 13.7344ZM19.7246 10.0625C19.7246 9.69792 19.6921 9.30729 19.627 8.89062C19.5684 8.47396 19.4707 8.12565 19.334 7.8457C19.1842 7.54622 18.9792 7.30208 18.7187 7.11328C18.4583 6.92448 18.123 6.83008 17.7129 6.83008C17.0293 6.83008 16.4596 7.11654 16.0039 7.68945C15.5547 8.25586 15.3105 9.04688 15.2715 10.0625H19.7246ZM30.1434 15.5801C29.7202 15.7559 29.3198 15.9023 28.9422 16.0195C28.5646 16.1432 28.1023 16.2051 27.5555 16.2051C26.7482 16.2051 26.1785 16.0033 25.8465 15.5996C25.521 15.1895 25.3582 14.6133 25.3582 13.8711V7.34766H23.6199V6.41016H25.3973V3.41211H27.1746V6.41016H29.9383V7.34766H27.1941V12.7285C27.1941 13.1322 27.2072 13.4707 27.2332 13.7441C27.2658 14.0111 27.3374 14.2454 27.448 14.4473C27.5522 14.6361 27.7085 14.7793 27.9168 14.877C28.1251 14.9746 28.4051 15.0234 28.7566 15.0234C28.9194 15.0234 29.157 15.0104 29.4695 14.9844C29.7885 14.9518 30.0131 14.9128 30.1434 14.8672V15.5801ZM45.5023 2.04492C45.5023 2.33789 45.4242 2.58529 45.268 2.78711C45.1117 2.98893 44.8741 3.08984 44.5551 3.08984C44.3533 3.08984 44.1742 3.04753 44.018 2.96289C43.8682 2.87826 43.7283 2.76432 43.598 2.62109C43.4678 2.47786 43.3474 2.3151 43.2367 2.13281C43.126 1.95052 43.0316 1.80404 42.9535 1.69336C42.5173 1.71289 42.1788 2.01888 41.9379 2.61133C41.7035 3.19727 41.5863 4.13477 41.5863 5.42383V6.41016H44.0668V7.34766H41.5863V14.2617C41.5863 14.4896 41.6286 14.6751 41.7133 14.8184C41.8044 14.9616 41.9444 15.069 42.1332 15.1406C42.2895 15.1992 42.4978 15.248 42.7582 15.2871C43.0186 15.3197 43.2432 15.3424 43.432 15.3555V16H38.3539V15.3555C38.5036 15.3424 38.6566 15.3294 38.8129 15.3164C38.9756 15.3034 39.1156 15.2773 39.2328 15.2383C39.4151 15.1797 39.5486 15.0788 39.6332 14.9355C39.7243 14.7858 39.7699 14.5938 39.7699 14.3594V7.34766H37.8656V6.41016H39.7699V5.79492C39.7699 4.33008 40.1475 3.14518 40.9027 2.24023C41.6645 1.32878 42.615 0.873047 43.7543 0.873047C44.3337 0.873047 44.7699 0.986979 45.0629 1.21484C45.3559 1.44271 45.5023 1.7194 45.5023 2.04492ZM55.423 11.0879C55.423 11.765 55.3156 12.4323 55.1008 13.0898C54.8859 13.7409 54.5799 14.2943 54.1828 14.75C53.7336 15.2708 53.2128 15.6582 52.6203 15.9121C52.0279 16.166 51.3638 16.293 50.6281 16.293C50.0161 16.293 49.4335 16.179 48.8801 15.9512C48.3267 15.7168 47.8352 15.3783 47.4055 14.9355C46.9823 14.4993 46.6437 13.9688 46.3898 13.3438C46.1424 12.7122 46.0187 12.0059 46.0187 11.2246C46.0187 9.7207 46.4549 8.49023 47.3273 7.5332C48.2062 6.57617 49.3553 6.09766 50.7746 6.09766C52.1223 6.09766 53.2323 6.55339 54.1047 7.46484C54.9836 8.36979 55.423 9.57747 55.423 11.0879ZM53.4016 11.1074C53.4016 10.6191 53.3527 10.1048 53.2551 9.56445C53.1574 9.01758 53.0109 8.55534 52.8156 8.17773C52.6073 7.77409 52.3339 7.45182 51.9953 7.21094C51.6568 6.96354 51.2434 6.83984 50.7551 6.83984C50.2538 6.83984 49.8241 6.96354 49.466 7.21094C49.1145 7.45833 48.828 7.79688 48.6066 8.22656C48.3983 8.6237 48.2518 9.07617 48.1672 9.58398C48.0826 10.0918 48.0402 10.5833 48.0402 11.0586C48.0402 11.6836 48.0891 12.263 48.1867 12.7969C48.2909 13.3242 48.4536 13.7962 48.675 14.2129C48.8964 14.6296 49.173 14.9583 49.5051 15.1992C49.8436 15.4336 50.2603 15.5508 50.7551 15.5508C51.5689 15.5508 52.2134 15.1569 52.6887 14.3691C53.1639 13.5814 53.4016 12.4941 53.4016 11.1074ZM67.4043 11.0879C67.4043 11.765 67.2969 12.4323 67.082 13.0898C66.8672 13.7409 66.5612 14.2943 66.1641 14.75C65.7148 15.2708 65.194 15.6582 64.6016 15.9121C64.0091 16.166 63.3451 16.293 62.6094 16.293C61.9974 16.293 61.4147 16.179 60.8613 15.9512C60.3079 15.7168 59.8164 15.3783 59.3867 14.9355C58.9635 14.4993 58.625 13.9688 58.3711 13.3438C58.1237 12.7122 58 12.0059 58 11.2246C58 9.7207 58.4362 8.49023 59.3086 7.5332C60.1875 6.57617 61.3366 6.09766 62.7559 6.09766C64.1035 6.09766 65.2135 6.55339 66.0859 7.46484C66.9648 8.36979 67.4043 9.57747 67.4043 11.0879ZM65.3828 11.1074C65.3828 10.6191 65.334 10.1048 65.2363 9.56445C65.1387 9.01758 64.9922 8.55534 64.7969 8.17773C64.5885 7.77409 64.3151 7.45182 63.9766 7.21094C63.638 6.96354 63.2246 6.83984 62.7363 6.83984C62.235 6.83984 61.8053 6.96354 61.4473 7.21094C61.0957 7.45833 60.8092 7.79688 60.5879 8.22656C60.3796 8.6237 60.2331 9.07617 60.1484 9.58398C60.0638 10.0918 60.0215 10.5833 60.0215 11.0586C60.0215 11.6836 60.0703 12.263 60.168 12.7969C60.2721 13.3242 60.4349 13.7962 60.6562 14.2129C60.8776 14.6296 61.1543 14.9583 61.4863 15.1992C61.8249 15.4336 62.2415 15.5508 62.7363 15.5508C63.5501 15.5508 64.1947 15.1569 64.6699 14.3691C65.1452 13.5814 65.3828 12.4941 65.3828 11.1074ZM80.5477 15.8242L77.1883 16.0391L77.0418 15.9023V15.0039L76.9637 14.9844C76.6251 15.362 76.2052 15.6712 75.7039 15.9121C75.2091 16.153 74.698 16.2734 74.1707 16.2734C73.6238 16.2734 73.0932 16.153 72.5789 15.9121C72.0711 15.6647 71.6284 15.3197 71.2508 14.877C70.8667 14.4277 70.5607 13.8874 70.3328 13.2559C70.1115 12.6243 70.0008 11.9277 70.0008 11.166C70.0008 10.4694 70.1212 9.80859 70.3621 9.18359C70.603 8.55859 70.935 8.01172 71.3582 7.54297C71.7553 7.10677 72.2404 6.75846 72.8133 6.49805C73.3927 6.23763 73.9819 6.10742 74.5809 6.10742C75.0301 6.10742 75.4695 6.16602 75.8992 6.2832C76.3354 6.39388 76.7098 6.53711 77.0223 6.71289V3.36328C77.0223 3.08984 76.9767 2.84245 76.8855 2.62109C76.7944 2.39323 76.6674 2.2207 76.5047 2.10352C76.3224 1.97982 76.075 1.89193 75.7625 1.83984C75.4565 1.78125 75.1245 1.73893 74.7664 1.71289V1.10742L78.702 0.882812L78.8484 1.0293V14.0176C78.8484 14.2454 78.8908 14.4408 78.9754 14.6035C79.0665 14.7598 79.1967 14.8932 79.366 15.0039C79.4897 15.082 79.6687 15.1309 79.9031 15.1504C80.1375 15.1699 80.3523 15.1829 80.5477 15.1895V15.8242ZM77.0223 14.1348V8.5C76.9702 8.33073 76.8855 8.14844 76.7684 7.95312C76.6512 7.75781 76.5047 7.57878 76.3289 7.41602C76.1401 7.25326 75.9187 7.11979 75.6648 7.01562C75.4109 6.90495 75.1147 6.84961 74.7762 6.84961C74.3855 6.84961 74.0242 6.95052 73.6922 7.15234C73.3667 7.35417 73.077 7.64388 72.823 8.02148C72.5822 8.38607 72.3901 8.85156 72.2469 9.41797C72.1102 9.97786 72.0418 10.5996 72.0418 11.2832C72.0418 11.8301 72.0939 12.3281 72.198 12.7773C72.3022 13.2201 72.478 13.6335 72.7254 14.0176C72.9533 14.3822 73.243 14.6751 73.5945 14.8965C73.9526 15.1178 74.3758 15.2285 74.8641 15.2285C75.3849 15.2285 75.8146 15.1146 76.1531 14.8867C76.4982 14.6589 76.7879 14.4082 77.0223 14.1348Z" fill="#545454"/>
</svg>
